<svg xmlns="http://www.w3.org/2000/svg" width="430" height="430" style="width:100%;height:100%;transform:translate3d(0,0,0);content-visibility:visible" viewBox="0 0 430 430"><defs><clipPath id="a"><path d="M0 0h430v430H0z"/></clipPath><clipPath id="d"><path d="M0 0h430v430H0z"/></clipPath><clipPath id="c"><path d="M0 0h430v430H0z"/></clipPath><clipPath id="b"><path d="M0 0h430v430H0z"/></clipPath></defs><g fill="none" clip-path="url(#a)"><g clip-path="url(#b)" style="display:none"><path class="secondary" style="display:none"/><path class="primary" style="display:none"/></g><g stroke-linejoin="round" clip-path="url(#c)" style="display:block"><path stroke="#08A88A" stroke-width="12" d="M-15 12.5c-24.853 0-45 20.147-45 45v15H60v-15c0-24.853-20.147-45-45-45h-30zm45-55c0 16.569-13.431 30-30 30-16.569 0-30-13.431-30-30 0-16.569 13.431-30 30-30 16.569 0 30 13.431 30 30z" class="secondary" style="display:block" transform="translate(215 207)"/><path stroke="#121331" stroke-linecap="round" stroke-width="12.04" d="M-129.023-160.241c0 14.739-11.948 26.687-26.687 26.687s-26.687-11.948-26.687-26.687 11.948-26.686 26.687-26.686 26.687 11.947 26.687 26.686zm-152.011 56.949c12.764 7.369 17.137 23.69 9.768 36.454s-23.691 17.137-36.455 9.768-17.137-23.69-9.768-36.454 23.691-17.137 36.455-9.768zm-26.687 160.119c12.764-7.369 29.086-2.996 36.455 9.768 7.369 12.764 2.996 29.085-9.768 36.454-12.764 7.369-29.086 2.996-36.455-9.768-7.369-12.764-2.996-29.085 9.768-36.454zm125.324 103.171c0-14.739 11.948-26.687 26.687-26.687s26.687 11.948 26.687 26.687-11.948 26.686-26.687 26.686-26.687-11.947-26.687-26.686zm152.011-56.949c-12.764-7.369-17.137-23.69-9.768-36.454s23.691-17.137 36.455-9.768 17.137 23.69 9.768 36.454-23.691 17.137-36.455 9.768zM-3.699-57.07c-12.764 7.369-29.086 2.996-36.455-9.768-7.369-12.764-2.996-29.085 9.768-36.454 12.764-7.369 29.086-2.996 36.455 9.768C13.438-80.76 9.065-64.439-3.699-57.07zM-129.03 158.58c39.23-6.55 73.66-27.29 97.82-56.77m-97.91-260.61c38.83 6.45 72.95 26.81 97.08 55.79M-306.72 55.53c-6.39-17.34-9.88-36.07-9.88-55.63 0-20.05 3.67-39.23 10.36-56.93m123.85 215.61c-39.23-6.55-73.66-27.29-97.82-56.77m.83-204.82c24.13-28.98 58.25-49.34 97.08-55.79M-5.18-57.03C1.51-39.33 5.18-20.15 5.18-.1c0 19.56-3.49 38.29-9.88 55.63" class="primary" style="display:block" transform="translate(370.71 215.121)"/></g><g clip-path="url(#d)" style="display:none"><path class="primary" style="display:none"/><path class="secondary" style="display:none"/></g></g></svg>