<svg xmlns="http://www.w3.org/2000/svg" width="430" height="430" style="width:100%;height:100%;transform:translate3d(0,0,0);content-visibility:visible" viewBox="0 0 430 430"><defs><clipPath id="c"><path d="M0 0h430v430H0z"/></clipPath><clipPath id="f"><path d="M0 0h430v430H0z"/></clipPath><clipPath id="d"><path d="M0 0h430v430H0z"/></clipPath><path id="a" style="display:none"/><path id="b" fill="#FF0505" d="M-31.64 62.955h23.13a1 1 0 0 0 .95-.69l40.15-123.91a.999.999 0 0 0-.95-1.31H8.51a1 1 0 0 0-.95.69l-40.15 123.91c-.21.65.27 1.31.95 1.31z" style="display:block" transform="translate(215 248.355)"/><mask id="g" mask-type="alpha"><use xmlns:ns1="http://www.w3.org/1999/xlink" ns1:href="#a"/></mask><mask id="e" mask-type="alpha"><use xmlns:ns2="http://www.w3.org/1999/xlink" ns2:href="#b"/></mask></defs><g clip-path="url(#c)"><g clip-path="url(#d)" style="display:block"><g style="display:block"><path fill="#EBE6EF" d="M352.71 54.88H77.29c-12.377 0-22.41 10.033-22.41 22.41v275.42c0 12.377 10.033 22.41 22.41 22.41h275.42c12.377 0 22.41-10.033 22.41-22.41V77.29c0-12.377-10.033-22.41-22.41-22.41z" class="secondary"/><path fill="#3A3347" d="M375.11 105.955v-29a22.397 22.397 0 0 0-13.819-20.701 22.389 22.389 0 0 0-8.571-1.709H77.29A22.404 22.404 0 0 0 56.592 68.38a22.41 22.41 0 0 0-1.702 8.575v29h320.22z" class="primary"/><path fill="none" stroke="#08A88A" stroke-linecap="round" stroke-linejoin="round" stroke-width="15" d="M143.003 80.562h-.13" class="tertiary"/><path fill="none" stroke="#FFC738" stroke-linecap="round" stroke-linejoin="round" stroke-width="15" d="M114.877 80.562h-.13" class="quaternary"/><path fill="none" stroke="#F24C00" stroke-linecap="round" stroke-linejoin="round" stroke-width="15" d="M86.877 80.562h-.13" class="quinary"/></g><path fill="#08A88A" d="M-31.64 62.955h23.13a1 1 0 0 0 .95-.69l40.15-123.91a.999.999 0 0 0-.95-1.31H8.51a1 1 0 0 0-.95.69l-40.15 123.91c-.21.65.27 1.31.95 1.31z" class="tertiary" style="display:block" transform="translate(215 248.355)"/><g mask="url(#e)" style="mix-blend-mode:multiply;display:block"><path fill="#08A88A" d="m194.895 310.615 40.15-123.91c.21-.64 5.355-16.675 4.675-16.675l-95.675 15.09c-.43 0-5.32 126.09-4.64 126.09l51.915 11.595c.43 0 3.445-11.78 3.575-12.19z" class="tertiary" opacity=".5"/></g><path fill="#08A88A" d="M-34.924-26.715v-28.33.02c0-.84.98-1.31 1.63-.78l67.85 55.03a1 1 0 0 1 0 1.55l-67.85 55.03c-.65.53-1.63.06-1.63-.78v-28.33c0-.3.14-.59.37-.78L-3.544.765a1 1 0 0 0 0-1.55l-31.01-25.15c-.23-.19-.37-.48-.37-.78z" class="tertiary" style="display:block" transform="translate(299.034 248.375)"/><g fill="#08A88A" style="display:block"><path d="m165.77 222.43-31.01 25.15v-.02a1 1 0 0 0 0 1.55l31.01 25.15c.23.19.37.48.37.78v28.33c0 .84-.98 1.31-1.63.78l-67.85-55.03a1 1 0 0 1 0-1.55l67.85-55.03c.65-.53 1.63-.06 1.63.78v28.33c0 .3-.14.59-.37.78z" class="tertiary"/><path fill-opacity=".5" d="M34.554-25.915 3.544-.765v-.02a1 1 0 0 0 0 1.55l31.01 25.15c.23.19.37.48.37.78v28.33c0 .84-.98 1.31-1.63.78L-34.556.775a1 1 0 0 1 0-1.55l67.85-55.03c.65-.53 1.63-.06 1.63.78v28.33c0 .3-.14.59-.37.78z" class="tertiary" style="mix-blend-mode:multiply" transform="translate(131.216 248.345)"/></g></g><g clip-path="url(#f)" style="display:none"><g style="display:none"><path class="secondary"/><path class="primary"/><path fill="none" class="tertiary"/><path fill="none" class="quaternary"/><path fill="none" class="quinary"/></g><path class="tertiary" style="display:none"/><g mask="url(#g)" style="mix-blend-mode:multiply;display:none"><path class="tertiary"/></g><path class="tertiary" style="display:none"/><g style="display:none"><path class="tertiary"/><path class="tertiary" style="mix-blend-mode:multiply"/></g></g></g></svg>